<?xml version="1.0" standalone="no"?>
<!DOCTYPE svg PUBLIC "-//W3C//DTD SVG 20010904//EN"
 "http://www.w3.org/TR/2001/REC-SVG-20010904/DTD/svg10.dtd">
<svg version="1.0" xmlns="http://www.w3.org/2000/svg"
 width="171.000000pt" height="171.000000pt" viewBox="0 0 171.000000 171.000000"
 preserveAspectRatio="xMidYMid meet">
<metadata>
Created by potrace 1.11, written by Peter Selinger 2001-2013
</metadata>
<g transform="translate(0.000000,171.000000) scale(0.100000,-0.100000)"
fill="#000000" stroke="none">
<path d="M1435 1565 c-221 -32 -413 -89 -577 -171 -129 -64 -193 -106 -261
-171 -105 -101 -165 -201 -197 -332 -19 -75 -43 -290 -33 -301 2 -2 115 107
251 243 136 136 254 247 263 247 21 0 39 -20 39 -44 0 -14 -125 -145 -365
-386 -325 -326 -365 -369 -365 -397 0 -40 23 -63 62 -63 25 0 47 16 117 84
l86 83 165 12 c186 13 325 38 391 71 57 28 138 83 139 93 0 4 -55 7 -122 7
l-123 1 189 64 c104 36 193 68 197 72 24 28 69 98 69 110 0 10 -23 13 -102 13
l-103 0 142 72 142 73 35 97 c43 119 70 229 91 368 8 58 18 120 21 138 5 31 4
32 -28 31 -18 -1 -73 -7 -123 -14z"/>
<path d="M598 3 c172 -2 451 -2 620 0 169 1 28 2 -313 2 -341 0 -479 -1 -307
-2z"/>
</g>
</svg>
